<?xml version="1.0" standalone="no"?>
<!DOCTYPE svg PUBLIC "-//W3C//DTD SVG 20010904//EN"
 "http://www.w3.org/TR/2001/REC-SVG-20010904/DTD/svg10.dtd">
<svg version="1.0" xmlns="http://www.w3.org/2000/svg"
 width="1024.000000pt" height="1024.000000pt" viewBox="0 0 1024.000000 1024.000000"
 preserveAspectRatio="xMidYMid meet">

<g transform="translate(0.000000,1024.000000) scale(0.100000,-0.100000)"
fill="#000000" stroke="none">
<path d="M4904 7880 c-425 -48 -824 -258 -1105 -580 -221 -253 -364 -595 -406
-970 -27 -237 0 -485 78 -713 184 -542 612 -945 1169 -1102 342 -96 767 -70
1090 67 467 198 810 568 966 1044 105 322 109 726 9 1044 -54 173 -140 357
-233 500 -71 108 -283 320 -412 412 -275 196 -579 295 -930 303 -85 2 -187 0
-226 -5z m431 -282 c144 -25 263 -66 410 -140 135 -68 204 -114 242 -164 21
-28 32 -34 62 -34 62 0 108 -19 159 -65 60 -54 82 -109 82 -203 0 -46 5 -71
19 -90 34 -49 104 -196 132 -282 34 -97 53 -198 70 -358 19 -184 -13 -437 -76
-607 -146 -388 -481 -729 -836 -850 -219 -75 -373 -100 -579 -92 -223 8 -391
53 -606 162 -165 84 -224 126 -345 247 -184 183 -326 434 -389 685 -42 171
-44 450 -4 686 21 126 94 315 157 412 30 44 66 100 82 125 42 67 206 224 330
318 315 237 688 323 1090 250z"/>
<path d="M5920 7107 c-96 -27 -181 -94 -440 -350 -113 -111 -242 -233 -287
-272 -75 -64 -209 -145 -241 -145 -18 0 11 53 64 115 177 206 172 191 99 265
l-59 60 -93 -91 c-67 -66 -98 -90 -110 -86 -10 3 -171 58 -358 121 -207 70
-356 115 -381 116 -39 0 -184 -61 -184 -78 0 -7 59 -54 125 -99 47 -32 371
-221 460 -268 330 -175 407 -219 429 -248 18 -23 22 -35 14 -44 -16 -20 -89
-16 -122 6 l-29 20 -126 -119 c-195 -183 -224 -208 -258 -226 -31 -17 -34 -17
-130 13 -54 17 -131 43 -172 57 -64 24 -78 26 -103 15 -47 -19 -118 -94 -118
-125 0 -35 54 -88 155 -149 124 -75 125 -77 125 -157 0 -65 1 -69 27 -79 15
-6 57 -9 92 -8 l65 2 30 -45 c77 -113 159 -216 180 -226 34 -15 63 -5 85 32
20 32 20 32 -3 165 -12 73 -20 145 -18 161 3 20 25 47 71 88 242 219 520 471
606 552 734 684 798 752 826 875 16 73 6 121 -31 140 -41 21 -136 27 -190 12z
m130 -47 c11 -41 -6 -67 -59 -95 -53 -26 -91 -32 -91 -14 0 6 16 33 35 59 59
80 102 99 115 50z m-282 -202 c17 -17 15 -65 -3 -72 -15 -6 -55 26 -55 43 0
37 33 54 58 29z m-100 -100 c19 -19 15 -68 -5 -68 -35 0 -68 52 -46 73 10 11
38 8 51 -5z m-100 -90 c14 -14 16 -64 2 -73 -15 -9 -48 12 -55 35 -12 37 27
64 53 38z m-88 -108 c25 -46 -16 -84 -50 -48 -23 25 -25 39 -8 56 18 18 46 14
58 -8z m-100 -100 c27 -51 -25 -83 -56 -35 -13 20 -14 28 -4 40 18 21 47 19
60 -5z m-545 -509 c0 -43 -18 -50 -40 -17 -21 32 -13 58 17 54 19 -2 23 -9 23
-37z m-97 -97 c4 -38 -16 -49 -47 -28 -21 15 -28 44 -14 58 4 4 19 6 33 4 20
-2 26 -9 28 -34z m-110 -88 c4 -29 -14 -60 -29 -50 -22 13 -28 41 -13 63 20
28 38 22 42 -13z"/>
<path d="M4104 7027 l-29 -32 30 25 c17 14 32 26 34 28 2 1 2 4 -1 7 -2 3 -18
-10 -34 -28z"/>
<path d="M6200 6733 c0 -9 -55 -73 -122 -142 l-123 -126 116 110 c64 61 119
118 123 128 9 20 36 22 55 5 10 -11 10 -8 0 15 -13 30 -49 38 -49 10z"/>
<path d="M3860 6600 c0 -5 7 -10 16 -10 8 0 12 5 9 10 -3 6 -10 10 -16 10 -5
0 -9 -4 -9 -10z"/>
<path d="M5879 6403 c-13 -16 -12 -17 4 -4 9 7 17 15 17 17 0 8 -8 3 -21 -13z"/>
<path d="M5448 6055 l-197 -201 76 -130 c41 -71 118 -203 170 -294 153 -265
201 -330 239 -330 18 0 25 8 33 38 16 57 13 109 -18 332 -16 113 -32 239 -34
281 l-5 76 94 93 c52 52 94 101 94 110 -1 20 -64 106 -88 119 -15 8 -28 1 -71
-36 -28 -25 -55 -42 -58 -39 -4 4 -14 46 -22 95 l-16 88 -197 -202z"/>
<path d="M3803 6000 c0 -25 2 -35 4 -22 2 12 2 32 0 45 -2 12 -4 2 -4 -23z"/>
<path d="M6052 5990 c0 -19 2 -27 5 -17 2 9 2 25 0 35 -3 9 -5 1 -5 -18z"/>
<path d="M5129 5713 l-24 -28 28 24 c15 14 27 26 27 28 0 8 -8 1 -31 -24z"/>
<path d="M5280 5521 c0 -6 4 -13 10 -16 6 -3 7 1 4 9 -7 18 -14 21 -14 7z"/>
<path d="M4848 5457 c-76 -58 -85 -79 -11 -24 43 31 93 78 82 76 -2 0 -34 -23
-71 -52z"/>
<path d="M3980 5456 c0 -2 7 -9 15 -16 9 -7 15 -8 15 -2 0 5 -7 12 -15 16 -8
3 -15 4 -15 2z"/>
<path d="M4040 5421 c0 -5 5 -13 10 -16 6 -3 10 -2 10 4 0 5 -4 13 -10 16 -5
3 -10 2 -10 -4z"/>
<path d="M4803 5285 c0 -22 2 -30 4 -17 2 12 2 30 0 40 -3 9 -5 -1 -4 -23z"/>
<path d="M5920 5233 c0 -25 2 -44 4 -42 8 10 13 89 5 89 -5 0 -9 -21 -9 -47z"/>
<path d="M4812 5205 c0 -16 2 -22 5 -12 2 9 2 23 0 30 -3 6 -5 -1 -5 -18z"/>
<path d="M5910 5149 c0 -5 5 -7 10 -4 6 3 10 8 10 11 0 2 -4 4 -10 4 -5 0 -10
-5 -10 -11z"/>
<path d="M4324 5126 c2 -23 61 -84 72 -73 3 2 -8 15 -24 29 -16 13 -27 28 -25
34 2 6 -3 16 -10 22 -11 10 -14 7 -13 -12z"/>
<path d="M4816 5095 c-9 -26 -7 -32 5 -12 6 10 9 21 6 23 -2 3 -7 -2 -11 -11z"/>
<path d="M4727 4979 c-32 -27 -52 -49 -45 -49 7 1 36 23 63 50 63 63 56 63
-18 -1z"/>
<path d="M3309 4037 l-34 -23 -3 -559 c-2 -617 -5 -593 61 -614 39 -13 78 -3
115 31 20 20 22 30 22 130 l0 109 33 32 c19 18 37 39 40 47 5 12 9 11 22 -7 9
-12 76 -93 149 -180 l132 -158 76 0 c54 1 83 6 102 18 14 10 26 21 26 26 0 23
-70 111 -296 368 l-46 53 35 42 c20 24 83 99 141 168 58 69 105 133 106 142 0
35 -58 55 -146 50 -27 -2 -51 -25 -175 -163 -79 -89 -152 -172 -162 -185 -41
-52 -42 -40 -39 310 l3 334 -31 26 c-39 33 -85 34 -131 3z"/>
<path d="M7698 4005 c-29 -16 -58 -62 -58 -91 0 -30 40 -82 72 -93 47 -17 65
-14 100 18 65 58 34 164 -53 176 -20 3 -45 -1 -61 -10z m101 -31 c31 -39 28
-97 -5 -123 -36 -28 -70 -26 -99 5 -33 36 -33 87 0 119 33 34 77 33 104 -1z"/>
<path d="M7717 3952 c-21 -23 -22 -75 -1 -93 13 -11 14 -9 9 14 -4 15 -4 39 1
55 7 25 8 24 14 -18 l7 -45 2 50 c1 41 4 47 12 32 6 -10 9 -36 7 -57 -4 -50 8
-42 17 10 11 63 -30 94 -68 52z"/>
<path d="M2658 3989 c-205 -28 -321 -143 -322 -319 0 -61 5 -86 27 -135 53
-114 114 -156 292 -200 177 -43 232 -63 260 -96 47 -56 23 -149 -47 -185 -18
-9 -62 -19 -99 -22 -107 -7 -182 22 -322 124 -43 31 -33 37 -104 -64 -48 -69
-41 -92 46 -149 119 -78 302 -123 424 -103 115 18 175 46 243 114 128 128 141
309 31 424 -55 58 -145 96 -341 147 -158 40 -196 70 -196 154 0 82 78 127 204
119 72 -5 149 -33 229 -85 27 -18 28 -18 45 3 9 12 36 45 60 73 23 29 42 56
42 60 0 4 -28 25 -63 48 -118 78 -268 111 -409 92z"/>
<path d="M4987 3981 c-34 -5 -56 -16 -77 -36 l-29 -30 -7 -507 -7 -506 31 -31
c41 -42 105 -44 151 -5 l31 26 0 206 0 207 209 0 c191 0 211 2 230 19 39 36
40 117 1 156 -19 19 -34 20 -230 20 l-210 0 0 148 0 147 247 -3 c137 -1 258 0
270 3 26 6 63 71 63 109 0 14 -11 38 -24 53 l-24 28 -289 1 c-158 1 -310 -1
-336 -5z"/>
<path d="M5856 3714 c-38 -8 -105 -33 -148 -55 -73 -37 -79 -42 -66 -57 8 -9
32 -45 52 -80 l38 -63 34 30 c73 65 226 79 314 30 46 -26 64 -54 76 -113 l7
-39 -59 9 c-79 12 -164 10 -252 -5 -237 -42 -328 -270 -178 -448 32 -38 113
-78 177 -88 83 -12 222 37 286 101 21 21 23 21 23 5 0 -48 76 -101 143 -101
60 0 60 -1 52 327 -3 164 -11 314 -16 334 -13 51 -63 122 -108 153 -95 66
-242 90 -375 60z m292 -545 c-8 -82 -57 -131 -148 -151 -64 -13 -140 -4 -170
20 -13 10 -23 34 -27 58 -4 33 -1 45 22 72 35 42 67 50 209 51 l119 1 -5 -51z"/>
<path d="M6875 3721 c-75 -19 -121 -53 -162 -117 -11 -17 -12 -17 -12 9 -2 62
-45 106 -106 107 -22 0 -51 -7 -63 -16 -51 -35 -52 -46 -52 -437 l0 -363 33
-32 c46 -44 100 -45 144 -1 l32 30 3 217 3 217 32 67 c44 93 88 122 195 127
l78 3 36 61 c26 45 33 66 26 77 -26 41 -123 68 -187 51z"/>
<path d="M7345 3716 c-155 -44 -240 -119 -285 -252 -27 -76 -35 -186 -20 -259
45 -223 213 -365 431 -365 49 0 101 7 142 20 65 20 155 79 183 119 13 19 12
23 -19 58 -18 21 -42 50 -54 65 l-21 28 -16 -24 c-8 -13 -41 -37 -73 -53 -78
-38 -184 -40 -256 -5 -47 24 -96 81 -111 130 l-7 22 278 0 c225 0 283 3 299
14 17 13 19 27 19 118 0 95 -3 108 -32 170 -62 131 -191 219 -331 225 -46 2
-97 -3 -127 -11z m146 -168 c51 -17 117 -65 134 -98 8 -16 15 -43 15 -60 l0
-30 -201 0 -202 0 6 37 c13 81 106 156 198 162 9 1 31 -4 50 -11z"/>
<path d="M4038 3691 c-32 -29 -33 -29 -20 -76 7 -25 46 -128 88 -228 42 -100
98 -236 126 -302 27 -66 57 -134 65 -152 13 -29 13 -38 -2 -89 -9 -33 -28 -69
-45 -85 -27 -27 -33 -29 -112 -29 l-84 0 -22 -68 c-12 -38 -22 -72 -22 -76 0
-4 19 -16 43 -26 63 -29 176 -27 243 4 117 54 131 79 314 536 67 168 131 328
142 355 28 68 58 165 58 192 0 34 -45 63 -100 63 -73 0 -72 2 -184 -300 -88
-237 -114 -298 -119 -280 -26 95 -194 530 -216 560 -14 20 -28 26 -69 28 -44
3 -55 -1 -84 -27z"/>
</g>
</svg>
