<svg version="1.2" xmlns="http://www.w3.org/2000/svg" viewBox="0 0 1552 439" width="1552" height="439">
	<title>TRVG_BIG-svg</title>
	<defs>
		<clipPath clipPathUnits="userSpaceOnUse" id="cp1">
			<path d="m1.01 0h1550.17v439h-1550.17z"/>
		</clipPath>
	</defs>
	<style>
		.s0 { fill: #ffffff } 
	</style>
	<g id="Clip-Path: Clip-Path" clip-path="url(#cp1)">
		<g id="Clip-Path">
			<g id="Layer">
				<path id="Layer" class="s0" d="m530.1 102h-67.3q-0.7 0-1.3 0.3-0.6 0.2-1.1 0.7-0.5 0.5-0.8 1.1-0.3 0.7-0.3 1.4v218.2c0 1.9 1.6 3.5 3.5 3.5h67.3c1.9 0 3.5-1.6 3.5-3.5v-218.2q0-0.7-0.3-1.4-0.3-0.6-0.7-1.1-0.5-0.5-1.2-0.7-0.6-0.3-1.3-0.3z"/>
				<path id="Layer" class="s0" d="m724.5 104.2l-44.3 118.2q-0.1 0.2-0.3 0.3-0.2 0.2-0.5 0.2-0.2 0-0.4-0.2-0.2-0.1-0.3-0.3l-44.6-118.2q-0.2-0.4-0.5-0.9-0.3-0.4-0.8-0.7-0.4-0.3-0.9-0.4-0.5-0.2-1.1-0.2h-73.6q-0.8 0-1.6 0.4-0.8 0.4-1.3 1.1-0.4 0.8-0.5 1.6-0.1 0.9 0.2 1.7l88.4 218.2c0.6 1.3 1.9 2.2 3.3 2.2h64.7q0.5 0 1-0.2 0.5-0.1 0.9-0.4 0.5-0.3 0.8-0.7 0.3-0.4 0.5-0.9l88.9-218.2q0.4-0.8 0.3-1.7-0.1-0.9-0.6-1.6-0.6-0.7-1.4-1.1-0.7-0.4-1.6-0.4h-71.5q-0.5 0-1 0.1-0.5 0.2-1 0.5-0.4 0.3-0.7 0.7-0.4 0.5-0.5 1z"/>
				<path id="Layer" fill-rule="evenodd" class="s0" d="m1429.8 331.2c-67.1 0-121.3-52.1-121.3-116.3 0-64.4 54.2-116.3 121.3-116.3 67.2 0 121.4 51.9 121.4 116.3 0 64.2-54.2 116.3-121.4 116.3zm45.9-116.3c0-29.3-20.5-52.9-45.9-52.9-25.4 0-45.8 23.6-45.8 52.9 0 29.2 20.4 52.8 45.8 52.8 25.4 0 45.9-23.6 45.9-52.8z"/>
				<path id="Layer" fill-rule="evenodd" class="s0" d="m435.6 101.4q0.4 0.4 0.7 0.8 0.3 0.4 0.5 0.9 0.1 0.5 0.1 1.1v63.1q0 0.8-0.3 1.6-0.4 0.8-1 1.3-0.7 0.5-1.5 0.6-0.8 0.2-1.6-0.1c-13.3-3.7-22.7-3.7-25.9-3.7-27.7 0-55.7 15.1-55.7 75.7v81q0 0.7-0.3 1.3-0.2 0.7-0.7 1.2-0.5 0.4-1.1 0.7-0.7 0.3-1.4 0.3h-67.3c-1.9 0-3.4-1.6-3.4-3.5v-218.2q0-0.7 0.2-1.4 0.3-0.6 0.8-1.1 0.5-0.5 1.1-0.7 0.7-0.3 1.3-0.3h67.3q0.7 0 1.4 0.3 0.6 0.2 1.1 0.7 0.5 0.5 0.7 1.1 0.3 0.7 0.3 1.4v21.6c0 0.7 1 1.1 1.4 0.5 25.4-34.2 71.1-29 75.4-28.3q0.9 0.1 1.8 0.3 0.9 0.1 1.7 0.3 0.9 0.2 1.8 0.5 0.8 0.2 1.7 0.5 0.5 0.2 0.9 0.5zm60.9-19.3c-23.6 0-42.6-18.4-42.6-41.1 0-22.7 19-41 42.6-41 23.4 0 42.4 18.3 42.4 41 0 22.7-19 41.1-42.4 41.1z"/>
				<path id="Layer" fill-rule="evenodd" class="s0" d="m1034.1 102.3q0.6 0.2 1.1 0.7 0.5 0.5 0.7 1.1 0.3 0.7 0.3 1.4v218.2q0 0.7-0.3 1.3-0.2 0.7-0.7 1.2-0.5 0.4-1.2 0.7-0.6 0.3-1.3 0.3h-67.3c-1.9 0-3.4-1.6-3.4-3.5v-17.4c0-0.7-0.9-1.1-1.4-0.5-45.4 50.1-168.3 28.8-168.3-91.2 0-128.4 143.8-138.3 168.2-87.3 0.3 0.8 1.5 0.5 1.5-0.3v-21.5q0-0.7 0.2-1.4 0.3-0.6 0.8-1.1 0.5-0.5 1.1-0.7 0.6-0.3 1.3-0.3h67.3q0.7 0 1.4 0.3zm-68.5 112.3c0-29.2-22.4-52.9-50.3-52.9-27.8 0-50.3 23.7-50.3 52.9 0 29.3 22.5 52.8 50.3 52.8 27.9 0 50.3-23.5 50.3-52.8z"/>
				<path id="Layer" fill-rule="evenodd" class="s0" d="m1288.1 102.3q0.6 0.2 1.1 0.7 0.5 0.5 0.8 1.1 0.2 0.7 0.2 1.4v206.6c-1.1 123.1-158.8 173.5-231.3 74.4q-0.4-0.6-0.6-1.3-0.1-0.7 0-1.4 0.1-0.7 0.5-1.3 0.4-0.6 1-1l56.8-36.7q0.5-0.3 1.1-0.5 0.7-0.1 1.3 0 0.6 0.1 1.2 0.4 0.5 0.3 0.9 0.8c31.7 37.8 93.9 16.3 94.9-33.6v-10.5q0-0.2-0.1-0.4-0.1-0.2-0.5-0.3-0.2-0.1-0.4 0-0.2 0-0.4 0.2c-36.4 34-158.6 24.3-158.6-92.8 0-119.5 134.1-132.5 158.4-80.8 0.4 0.8 1.6 0.5 1.6-0.3v-21.5q0-0.7 0.3-1.4 0.2-0.6 0.7-1.1 0.5-0.5 1.2-0.7 0.6-0.3 1.3-0.3h67.3q0.7 0 1.3 0.3zm-66.9 105.6c0-26.5-20.3-47.8-45.4-47.8-25.1 0-45.4 21.3-45.4 47.8 0 26.4 20.3 47.7 45.4 47.7 25.1 0 45.4-21.3 45.4-47.7z"/>
				<path id="Layer" class="s0" d="m253.3 204h-67.4q-0.6 0-1.2 0.2-0.6 0.3-1.1 0.7-0.5 0.5-0.8 1.1-0.3 0.5-0.3 1.2c-0.5 6.7-2.4 13.2-5.3 19.2-2.9 6.1-6.9 11.5-11.8 16.1-5 4.5-10.7 8.1-16.9 10.5-6.3 2.4-12.9 3.8-19.6 3.8-33.8 0-47.5-28.8-47.5-28.8q-1.4-2.9-2.5-5.8-1.1-2.9-2-5.9-0.8-3-1.2-6.2-0.4-3.1-0.5-6.2c0-0.2 0.2-0.5 0.4-0.6l19.4-10.7 121.8-67.5q0.7-0.3 1.2-1 0.6-0.5 1-1.2 0.4-0.6 0.6-1.4 0.2-0.7 0.2-1.5v-72.6q0-0.9-0.5-1.7-0.4-0.8-1.2-1.3-0.8-0.4-1.8-0.5-1 0-1.8 0.5l-138.1 76.5q-0.2 0.1-0.4 0.1-0.2 0-0.4-0.1-0.2-0.1-0.3-0.3-0.1-0.2-0.1-0.4v-114c0-0.7-0.1-1.3-0.5-1.8-0.3-0.6-0.7-1-1.3-1.3-0.5-0.3-1.2-0.4-1.8-0.4-0.6 0-1.2 0.2-1.7 0.5l-66.3 43q-0.6 0.4-1.1 0.9-0.5 0.6-0.8 1.2-0.4 0.6-0.5 1.3-0.2 0.8-0.2 1.5v152.9c0.2 33.5 13.6 65.6 37.1 89.4 23.6 23.8 55.5 37.4 89 37.9 33.4 0.5 65.8-12.2 90.1-35.4 24.2-23 38.4-54.8 39.6-88.3q0-0.7-0.2-1.4-0.3-0.6-0.8-1.2-0.4-0.5-1.1-0.8-0.7-0.2-1.4-0.2z"/>
			</g>
		</g>
	</g>
</svg>